<svg width="28" height="23" viewBox="0 0 28 23" fill="none" xmlns="http://www.w3.org/2000/svg">
<path d="M24.9836 19.5H22.3169V7.83333L14.3169 12.8333L6.31692 7.83333V19.5H3.65025V3.5H5.25025L14.3169 9.16667L23.3836 3.5H24.9836M24.9836 0.833333H3.65025C2.17025 0.833333 0.983582 2.02 0.983582 3.5V19.5C0.983582 20.2072 1.26453 20.8855 1.76463 21.3856C2.26473 21.8857 2.943 22.1667 3.65025 22.1667H24.9836C25.6908 22.1667 26.3691 21.8857 26.8692 21.3856C27.3693 20.8855 27.6502 20.2072 27.6502 19.5V3.5C27.6502 2.79276 27.3693 2.11448 26.8692 1.61438C26.3691 1.11428 25.6908 0.833333 24.9836 0.833333Z" fill="black"/>
</svg>
