<svg width="25" height="25" viewBox="0 0 25 25" fill="none" xmlns="http://www.w3.org/2000/svg">
<path d="M12.4884 8.33438C10.1947 8.33438 8.3228 10.2063 8.3228 12.5C8.3228 14.7937 10.1947 16.6656 12.4884 16.6656C14.7822 16.6656 16.6541 14.7937 16.6541 12.5C16.6541 10.2063 14.7822 8.33438 12.4884 8.33438ZM24.9822 12.5C24.9822 10.775 24.9978 9.06563 24.9009 7.34375C24.8041 5.34375 24.3478 3.56875 22.8853 2.10625C21.4197 0.640625 19.6478 0.1875 17.6478 0.0906252C15.9228 -0.00624979 14.2134 0.00937525 12.4916 0.00937525C10.7666 0.00937525 9.05718 -0.00624979 7.3353 0.0906252C5.3353 0.1875 3.5603 0.64375 2.0978 2.10625C0.632179 3.57188 0.179054 5.34375 0.0821795 7.34375C-0.0146955 9.06875 0.000929513 10.7781 0.000929513 12.5C0.000929513 14.2219 -0.0146955 15.9344 0.0821795 17.6562C0.179054 19.6562 0.635305 21.4312 2.0978 22.8937C3.56343 24.3594 5.3353 24.8125 7.3353 24.9094C9.0603 25.0062 10.7697 24.9906 12.4916 24.9906C14.2166 24.9906 15.9259 25.0062 17.6478 24.9094C19.6478 24.8125 21.4228 24.3562 22.8853 22.8937C24.3509 21.4281 24.8041 19.6562 24.9009 17.6562C25.0009 15.9344 24.9822 14.225 24.9822 12.5ZM12.4884 18.9094C8.94155 18.9094 6.07905 16.0469 6.07905 12.5C6.07905 8.95312 8.94155 6.09062 12.4884 6.09062C16.0353 6.09062 18.8978 8.95312 18.8978 12.5C18.8978 16.0469 16.0353 18.9094 12.4884 18.9094ZM19.1603 7.325C18.3322 7.325 17.6634 6.65625 17.6634 5.82812C17.6634 5 18.3322 4.33125 19.1603 4.33125C19.9884 4.33125 20.6572 5 20.6572 5.82812C20.6574 6.02477 20.6189 6.21953 20.5437 6.40125C20.4686 6.58297 20.3584 6.74808 20.2193 6.88713C20.0803 7.02617 19.9151 7.13642 19.7334 7.21156C19.5517 7.2867 19.3569 7.32525 19.1603 7.325Z" fill="black"/>
</svg>
