<svg width="32" height="33" viewBox="0 0 32 33" fill="none" xmlns="http://www.w3.org/2000/svg">
<path d="M29.6068 7.89981C24.82 0.499755 15.047 -1.70026 7.46785 2.89977C0.0881831 7.49981 -2.30522 17.4999 2.48159 24.8999L2.88049 25.4999L1.28489 31.5L7.2684 29.9L7.86675 30.3C10.4596 31.7 13.2519 32.5 16.0442 32.5C19.036 32.5 22.0277 31.7 24.6206 30.1C32.0002 25.2999 34.1942 15.4999 29.6068 7.89981ZM25.4184 23.2999C24.6206 24.4999 23.6233 25.2999 22.2272 25.4999C21.4294 25.4999 20.4321 25.8999 16.4431 24.2999C13.0525 22.6999 10.2602 20.0999 8.26565 17.0999C7.06895 15.6999 6.4706 13.8999 6.27115 12.0998C6.27115 10.4998 6.8695 9.09982 7.86675 8.09981C8.26565 7.69981 8.66455 7.49981 9.06345 7.49981H10.0607C10.4596 7.49981 10.8585 7.49981 11.058 8.29982C11.4569 9.29982 12.4541 11.6998 12.4541 11.8998C12.6536 12.0998 12.6536 12.4998 12.4541 12.6999C12.6536 13.0999 12.4541 13.4999 12.2547 13.6999C12.0552 13.8999 11.8558 14.2999 11.6563 14.4999C11.2574 14.6999 11.058 15.0999 11.2574 15.4999C12.0552 16.6999 13.0525 17.8999 14.0497 18.8999C15.2464 19.8999 16.4431 20.6999 17.8393 21.2999C18.2382 21.4999 18.6371 21.4999 18.8365 21.0999C19.036 20.6999 20.0332 19.6999 20.4321 19.2999C20.831 18.8999 21.0305 18.8999 21.4294 19.0999L24.6206 20.6999C25.0195 20.8999 25.4184 21.0999 25.6178 21.2999C25.8173 21.8999 25.8173 22.6999 25.4184 23.2999Z" fill="black"/>
</svg>
